<svg width="148" height="30" viewBox="0 0 148 30" fill="none" xmlns="http://www.w3.org/2000/svg">
<path d="M6.575 24.35C5.29167 24.35 4.125 24.1333 3.075 23.7C2.025 23.25 1.16667 22.6083 0.5 21.775L3.2 18.575C4.13333 19.7917 5.14167 20.4 6.225 20.4C6.94167 20.4 7.48333 20.1833 7.85 19.75C8.23333 19.3167 8.425 18.6833 8.425 17.85V10.325H2.375V6.5H13.325V17.55C13.325 19.8167 12.75 21.5167 11.6 22.65C10.4667 23.7833 8.79167 24.35 6.575 24.35ZM22.216 10.225C24.466 10.225 26.1827 10.7417 27.366 11.775C28.5493 12.7917 29.141 14.3583 29.141 16.475V24H24.716V22.25C24.0327 23.5667 22.6993 24.225 20.716 24.225C19.666 24.225 18.7577 24.0417 17.991 23.675C17.2243 23.3083 16.641 22.8167 16.241 22.2C15.8577 21.5667 15.666 20.85 15.666 20.05C15.666 18.7667 16.1577 17.775 17.141 17.075C18.1243 16.3583 19.641 16 21.691 16H24.391C24.3077 14.5667 23.3493 13.85 21.516 13.85C20.866 13.85 20.2077 13.9583 19.541 14.175C18.8743 14.375 18.3077 14.6583 17.841 15.025L16.241 11.8C16.991 11.3 17.8993 10.9167 18.966 10.65C20.0493 10.3667 21.1327 10.225 22.216 10.225ZM22.041 21.225C22.591 21.225 23.0743 21.0917 23.491 20.825C23.9077 20.5583 24.2077 20.1667 24.391 19.65V18.475H22.341C20.9577 18.475 20.266 18.9333 20.266 19.85C20.266 20.2667 20.4243 20.6 20.741 20.85C21.0577 21.1 21.491 21.225 22.041 21.225ZM38.2893 19.25L36.8893 20.675V24H32.1393V5.45H36.8893V15.175L41.7393 10.45H47.3643L41.7393 16.25L47.8393 24H42.0893L38.2893 19.25ZM58.1029 10.225C59.7863 10.225 61.1363 10.725 62.1529 11.725C63.1863 12.725 63.7029 14.2333 63.7029 16.25V24H58.9529V17.025C58.9529 15.175 58.2113 14.25 56.7279 14.25C55.9113 14.25 55.2529 14.5167 54.7529 15.05C54.2696 15.5833 54.0279 16.3833 54.0279 17.45V24H49.2779V5.45H54.0279V11.7C54.5446 11.2167 55.1529 10.85 55.8529 10.6C56.5529 10.35 57.3029 10.225 58.1029 10.225ZM73.6805 24.225C72.2305 24.225 70.9221 23.925 69.7555 23.325C68.5888 22.725 67.6721 21.8917 67.0055 20.825C66.3555 19.7583 66.0305 18.55 66.0305 17.2C66.0305 15.8667 66.3555 14.6667 67.0055 13.6C67.6721 12.5333 68.5805 11.7083 69.7305 11.125C70.8971 10.525 72.2138 10.225 73.6805 10.225C75.1471 10.225 76.4638 10.525 77.6305 11.125C78.7971 11.7083 79.7055 12.5333 80.3555 13.6C81.0055 14.65 81.3305 15.85 81.3305 17.2C81.3305 18.55 81.0055 19.7583 80.3555 20.825C79.7055 21.8917 78.7971 22.725 77.6305 23.325C76.4638 23.925 75.1471 24.225 73.6805 24.225ZM73.6805 20.45C74.5138 20.45 75.1971 20.1667 75.7305 19.6C76.2638 19.0167 76.5305 18.2167 76.5305 17.2C76.5305 16.2 76.2638 15.4167 75.7305 14.85C75.1971 14.2833 74.5138 14 73.6805 14C72.8471 14 72.1638 14.2833 71.6305 14.85C71.0971 15.4167 70.8305 16.2 70.8305 17.2C70.8305 18.2167 71.0971 19.0167 71.6305 19.6C72.1638 20.1667 72.8471 20.45 73.6805 20.45ZM92.3559 10.225C94.0392 10.225 95.3892 10.725 96.4059 11.725C97.4392 12.725 97.9559 14.2333 97.9559 16.25V24H93.2059V17.025C93.2059 15.175 92.4642 14.25 90.9809 14.25C90.1642 14.25 89.5059 14.5167 89.0059 15.05C88.5225 15.5833 88.2809 16.3833 88.2809 17.45V24H83.5309V10.45H88.0559V11.925C88.5892 11.375 89.2225 10.9583 89.9559 10.675C90.6892 10.375 91.4892 10.225 92.3559 10.225ZM115.708 10.45V21.525C115.708 24.0417 115.025 25.925 113.658 27.175C112.292 28.4417 110.325 29.075 107.758 29.075C106.425 29.075 105.175 28.925 104.008 28.625C102.842 28.325 101.85 27.8833 101.033 27.3L102.758 23.975C103.308 24.425 104 24.775 104.833 25.025C105.683 25.2917 106.517 25.425 107.333 25.425C108.583 25.425 109.5 25.15 110.083 24.6C110.667 24.05 110.958 23.2333 110.958 22.15V21.7C110.042 22.7667 108.7 23.3 106.933 23.3C105.733 23.3 104.625 23.0333 103.608 22.5C102.592 21.95 101.783 21.1833 101.183 20.2C100.583 19.2 100.283 18.05 100.283 16.75C100.283 15.4667 100.583 14.3333 101.183 13.35C101.783 12.35 102.592 11.5833 103.608 11.05C104.625 10.5 105.733 10.225 106.933 10.225C108.867 10.225 110.283 10.85 111.183 12.1V10.45H115.708ZM108.058 19.525C108.908 19.525 109.608 19.2667 110.158 18.75C110.725 18.2333 111.008 17.5667 111.008 16.75C111.008 15.9333 110.733 15.275 110.183 14.775C109.633 14.2583 108.925 14 108.058 14C107.192 14 106.475 14.2583 105.908 14.775C105.358 15.275 105.083 15.9333 105.083 16.75C105.083 17.5667 105.367 18.2333 105.933 18.75C106.5 19.2667 107.208 19.525 108.058 19.525ZM118.76 10.45H123.51V24H118.76V10.45ZM121.135 8.95C120.269 8.95 119.569 8.70833 119.035 8.225C118.502 7.74167 118.235 7.14167 118.235 6.425C118.235 5.70833 118.502 5.10833 119.035 4.625C119.569 4.14167 120.269 3.9 121.135 3.9C122.002 3.9 122.702 4.13333 123.235 4.6C123.769 5.05 124.035 5.63333 124.035 6.35C124.035 7.1 123.769 7.725 123.235 8.225C122.702 8.70833 122.002 8.95 121.135 8.95ZM131.122 12.075C131.606 11.4583 132.231 11 132.997 10.7C133.781 10.3833 134.672 10.225 135.672 10.225V14.5C135.239 14.45 134.881 14.425 134.597 14.425C133.581 14.425 132.781 14.7 132.197 15.25C131.631 15.8 131.347 16.6417 131.347 17.775V24H126.597V10.45H131.122V12.075Z" fill="white"/>
<path d="M140 16H148V24H140V16Z" fill="#9482FF"/>
</svg>
